<svg width="1367" height="355" viewBox="0 0 1367 355" fill="none" xmlns="http://www.w3.org/2000/svg">
<path d="M1374.13 341.792C1374.14 343.522 1373.84 345.238 1373.24 346.84C1372.64 348.441 1371.76 349.898 1370.64 351.126C1369.53 352.354 1368.2 353.328 1366.73 353.993C1365.27 354.658 1363.7 355 1362.11 355H12.021C8.82221 354.985 5.7596 353.586 3.50576 351.109C1.25193 348.633 -0.00887222 345.282 0.00025731 341.792V22.4814C-0.0087963 20.7529 0.295447 19.0396 0.895491 17.4398C1.49553 15.8401 2.37954 14.3855 3.49667 13.1598C4.6138 11.9341 5.94202 10.9614 7.40493 10.2977C8.86785 9.63396 10.4366 9.29228 12.021 9.29231H1362.12C1363.71 9.29228 1365.28 9.63426 1366.74 10.2986C1368.2 10.9629 1369.53 11.9364 1370.65 13.1631C1371.77 14.3898 1372.65 15.8455 1373.25 17.4463C1373.85 19.0471 1374.15 20.7615 1374.14 22.4908L1374.13 341.792Z" fill="url(#paint0_linear_101_115)"/>
<path d="M1375 328.875C1374.99 332.343 1373.71 335.664 1371.46 338.112C1369.21 340.559 1366.16 341.933 1362.98 341.933H15.4555C13.8841 341.933 12.328 341.595 10.8764 340.939C9.42466 340.282 8.10575 339.32 6.99499 338.108C5.88423 336.895 5.0034 335.455 4.40282 333.871C3.80225 332.287 3.49371 330.589 3.49484 328.875V13.1141C3.48692 11.3951 3.79045 9.69124 4.38798 8.10053C4.98551 6.50983 5.86527 5.06362 6.97671 3.84499C8.08814 2.62637 9.40935 1.65935 10.8644 0.999499C12.3195 0.33965 13.8797 -2.17043e-05 15.4555 1.04018e-09L1363.02 1.04018e-09C1366.21 1.04018e-09 1369.27 1.38167 1371.52 3.84104C1373.78 6.30042 1375.04 9.63606 1375.04 13.1141L1375 328.875Z" fill="url(#paint1_linear_101_115)"/>
<path d="M45.8507 239.193C32.0441 239.764 17.7737 241.46 3.49481 243.071V243.548C21.0623 241.769 38.5095 240.335 47.07 240.335C46.6578 239.942 46.2543 239.567 45.8507 239.193Z" fill="url(#paint2_linear_101_115)"/>
<path d="M4.10443 8.96446C35.1093 6.03251 73.9277 2.26687 96.7757 0H40.3555L7.72782 3.13803C6.05348 4.68127 4.80005 6.69679 4.10443 8.96446V8.96446Z" fill="url(#paint3_linear_101_115)"/>
<path d="M202 195.007C187.816 191.092 74.0307 198.586 3.49481 202.698V204.393C67.3764 200.534 132.374 194.651 202 195.007Z" fill="url(#paint4_linear_101_115)"/>
<path d="M8.02835 252.616V252.063C5.54692 252.166 4.70547 252.419 3.49481 252.541V253C3.90695 253.047 4.4994 253.084 5.58985 253.178C6.36723 252.84 7.19203 252.65 8.02835 252.616V252.616Z" fill="url(#paint5_linear_101_115)"/>
<path d="M105.611 106.618C99.7895 104.857 85.2874 105.382 76.3319 105.503C82.1706 107.283 96.501 106.787 105.611 106.618Z" fill="url(#paint6_linear_101_115)"/>
<path d="M25.115 251.501C26.5403 251.052 27.1499 251.052 29.992 250.939V250.377H22.6679V251.501H25.115Z" fill="url(#paint7_linear_101_115)"/>
<path d="M3.49481 49.7775V50.2553C4.13019 50.2553 4.81709 50.1616 5.58985 50.1241C4.90153 49.9454 4.20076 49.8295 3.49481 49.7775V49.7775Z" fill="url(#paint8_linear_101_115)"/>
<path d="M29.9919 249.825C31.5546 250.312 32.9971 250.34 36.0882 250.377C34.5255 249.89 33.083 249.862 29.9919 249.825Z" fill="url(#paint9_linear_101_115)"/>
<path d="M14.1332 49.0094C12.8195 48.5879 12.9998 48.6535 10.4755 48.4474C11.7806 48.8689 11.6003 48.794 14.1332 49.0094Z" fill="url(#paint10_linear_101_115)"/>
<path d="M14.1332 48.4474H16.5717C15.7943 48.1093 14.9695 47.9192 14.1332 47.8854V48.4474Z" fill="url(#paint11_linear_101_115)"/>
<path d="M5.58984 49.0094C6.90354 49.431 6.72323 49.356 9.25617 49.5621C7.94247 49.1406 8.12278 49.2155 5.58984 49.0094Z" fill="url(#paint12_linear_101_115)"/>
<path d="M3.49481 101.4V103.19C26.3428 104.576 49.0019 106.065 71.4635 106.065C71.266 105.972 35.2982 103.452 3.49481 101.4Z" fill="url(#paint13_linear_101_115)"/>
<path d="M247.138 93.7568L331.283 91.518C362.048 89.5415 450.632 84.886 469.135 73.0645C492.61 58.0769 405.374 49.4029 384.99 46.7707C282.719 33.5816 22.3846 48.8502 20.2294 76.418C57.8715 92.9699 174.876 94.1971 247.138 93.7568ZM441.101 65.7862C458.48 85.4574 274.64 88.6891 270.312 89.8413C195.294 89.682 89.0224 91.799 54.3855 73.6172C63.1434 43.2579 412.277 33.1413 441.101 65.7862Z" fill="url(#paint14_linear_101_115)"/>
<path d="M3.49481 122.111V123.198L31.2112 123.404C28.9444 122.758 17.1727 122.355 3.49481 122.111Z" fill="url(#paint15_linear_101_115)"/>
<path d="M270.312 81.4951C272.029 80.9892 455.036 72.9147 334.967 56.3253C201.442 37.8343 -11.4366 84.1366 270.312 81.4951ZM297.153 62.4795C300.309 63.904 303.572 65.0261 306.907 65.833C306.503 66.7698 306.1 67.7065 305.687 68.6432C297.548 70.4136 280.169 70.4323 272.751 72.5587C246.365 72.5587 219.748 72.9615 202 69.2052C204.499 58.564 279.328 62.236 297.153 62.4327V62.4795Z" fill="url(#paint16_linear_101_115)"/>
<path d="M920.53 0.337221C1016.48 5.36743 1127.84 5.62035 1224.58 0H1172.61C1170.72 0.112407 1168.84 0.215447 1166.96 0.346588C1107.22 4.234 1032.07 3.55019 956.318 0H914.297L920.53 0.337221Z" fill="url(#paint17_linear_101_115)"/>
<path d="M455.741 13.7699H458.179C457.402 13.4317 456.577 13.2416 455.741 13.2078V13.7699Z" fill="url(#paint18_linear_101_115)"/>
<path d="M482.547 41.7311C516.359 47.417 584.534 56.2035 585.049 75.8747C572.625 90.778 457.114 101.166 433.785 101.045C436.001 101.738 440.758 101.672 444.767 101.607C451.765 99.5926 474.321 100.464 483.8 99.3678C524.156 94.6842 604.763 91.5836 602.127 70.3293C588.904 56.7655 482.693 38.0498 449.644 37.3285C457.647 40.1387 472.338 40.0169 482.547 41.7311Z" fill="url(#paint19_linear_101_115)"/>
<path d="M466.722 14.3319C465.16 13.8354 463.709 13.8073 460.626 13.7699C462.18 14.2569 463.657 14.2851 466.722 14.3319Z" fill="url(#paint20_linear_101_115)"/>
<path d="M514.316 18.8001C509.679 17.2076 498.526 16.5238 491.133 16.5613C495.821 18.1163 507.198 18.7813 514.316 18.8001Z" fill="url(#paint21_linear_101_115)"/>
<path d="M448.425 37.2629C446.991 36.8133 446.382 36.8133 443.539 36.7009C444.973 37.1505 445.626 37.1505 448.425 37.2629Z" fill="url(#paint22_linear_101_115)"/>
<path d="M232.498 8.73028C231.185 8.30875 231.365 8.38369 228.841 8.16824C230.111 8.59914 229.965 8.5242 232.498 8.73028Z" fill="url(#paint23_linear_101_115)"/>
<path d="M376.447 104.913V103.789C373.115 104.108 370.127 104.361 365.465 104.351C367.68 105.072 372.445 105.016 376.447 104.913Z" fill="url(#paint24_linear_101_115)"/>
<path d="M1049.84 328.135C1006.11 328.135 786.156 327.779 754.619 326.458C701.547 324.229 472.303 323.301 453.302 321.418C421.215 318.243 123.221 322.355 3.49481 323.77V328.875C3.4954 329.473 3.53269 330.071 3.60643 330.664C142.154 329.802 543.397 327.657 582.611 331.526C607.288 333.961 829.491 331.348 879.05 333.764C928.378 336.172 1209.12 333.118 1374.73 331.666C1374.9 330.761 1375 329.838 1375 328.912V325.634C1268.5 326.917 1160.4 328.135 1049.84 328.135Z" fill="url(#paint25_linear_101_115)"/>
<path d="M75.1298 49.0094C51.9985 52.4566 30.4814 53.8148 9.24759 57.9552C7.24986 58.3486 5.33227 58.7389 3.49481 59.1261V68.2872C7.61621 67.1351 11.8406 65.9923 12.9397 65.7862C26.5918 63.2196 10.4926 62.5638 88.5758 51.8009C165.629 41.2159 287.914 32.954 380.104 43.4172C419.258 47.8573 492.181 51.2201 492.335 71.9405C472.398 94.8996 288.292 93.4851 278.855 95.9956C225.621 95.9956 44.8375 98.7308 3.49481 81.2047V91.6304C84.7292 101.616 198.462 99.9111 276.417 99.9111C343.578 97.9814 468.251 96.2859 519.176 78.6568C586.294 55.4166 310.393 13.9197 75.1298 49.0094Z" fill="url(#paint26_linear_101_115)"/>
<path d="M491.133 16.5613C489.699 16.1117 489.089 16.1117 486.247 16.0086C487.699 16.4582 488.282 16.4489 491.133 16.5613Z" fill="url(#paint27_linear_101_115)"/>
<path d="M432.566 12.0931H435.005C434.229 11.7502 433.403 11.5599 432.566 11.5311V12.0931Z" fill="url(#paint28_linear_101_115)"/>
<path d="M1148.66 338.205C1006.31 338.205 865.768 338.579 723.322 338.205C535.893 337.68 286.961 336.097 252.015 334.308C226.797 333.015 85.8111 334.842 5.22925 335.647C5.7428 336.562 6.35698 337.405 7.05812 338.158C104.632 338.055 200.892 337.802 303.283 338.738C330.424 338.991 482.255 339.582 498.474 340.415C518.283 341.446 608.867 341.67 727.658 341.474C930.431 341.146 1215.4 339.6 1370.87 338.738C1371.57 338.082 1372.19 337.341 1372.73 336.528C1299.43 337.221 1224.47 338.205 1148.66 338.205Z" fill="url(#paint29_linear_101_115)"/>
<path d="M465.503 117.812C466.928 118.262 467.538 118.262 470.38 118.374C468.946 117.915 468.337 117.924 465.503 117.812Z" fill="url(#paint30_linear_101_115)"/>
<path d="M596.031 38.9397C595.254 38.6003 594.429 38.4101 593.593 38.3776V38.9397H596.031Z" fill="url(#paint31_linear_101_115)"/>
<path d="M488.677 117.812C486.96 117.269 484.676 117.24 481.362 117.25C483.071 117.793 485.363 117.812 488.677 117.812Z" fill="url(#paint32_linear_101_115)"/>
<path d="M433.785 102.15C431.751 101.513 427.775 101.532 424.023 101.588C426.058 102.225 430.016 102.197 433.785 102.15Z" fill="url(#paint33_linear_101_115)"/>
<path d="M389.867 104.389H394.744C398.256 103.293 407.855 103.236 413.041 103.265C407.675 101.513 395.98 103.265 389.858 103.265L389.867 104.389Z" fill="url(#paint34_linear_101_115)"/>
<path d="M494.782 116.688C497.564 117.55 504.691 117.334 509.379 117.25C516.428 115.208 586.947 114.899 602.11 113.334C648.338 108.566 698.224 108.032 741.207 102.703C788.895 96.7918 785.1 100.96 811.966 88.7266C808.824 71.0131 610.877 39.5017 599.689 39.5017C613.246 44.5506 755.58 62.9198 777.802 83.125C799.379 102.703 535.301 117.016 494.782 116.688Z" fill="url(#paint35_linear_101_115)"/>
<path d="M913.207 66.9103C821.549 62.0393 561.197 19.0342 514.316 18.8001C517.579 19.896 635.966 34.0499 649.721 36.1388C765.034 53.665 864.823 74.6195 1021.76 73.0645C1028.63 71.0974 1040.88 72.8866 1049.82 71.9498C1130.74 65.0743 1214.68 61.6459 1293.81 51.2576C1302.66 50.096 1345.92 45.0377 1374.98 42.1339V41.4032C1298.57 50.8548 1218.38 54.33 1140.1 63.0041C1082.49 69.3832 970.889 69.9733 913.207 66.9103Z" fill="url(#paint36_linear_101_115)"/>
<path d="M1358.48 54.0396C1357.7 53.7015 1356.88 53.5114 1356.04 53.4776V54.0396H1358.48Z" fill="url(#paint37_linear_101_115)"/>
<path d="M1346.32 54.6017C1347.64 55.0232 1347.45 54.9576 1349.98 55.1637C1348.63 54.7328 1348.81 54.8078 1346.32 54.6017Z" fill="url(#paint38_linear_101_115)"/>
<path d="M486.239 16.0086C484.805 15.559 484.204 15.559 481.362 15.4466C482.796 15.9243 483.405 15.9243 486.239 16.0086Z" fill="url(#paint39_linear_101_115)"/>
<path d="M597.25 39.5017H599.689C598.435 39.0427 599.397 39.2862 597.25 38.9397V39.5017Z" fill="url(#paint40_linear_101_115)"/>
<path d="M439.882 36.7009H442.32C441.543 36.3627 440.718 36.1726 439.882 36.1388V36.7009Z" fill="url(#paint41_linear_101_115)"/>
<path d="M391.086 193.321C396.564 194.961 413.548 193.977 421.584 193.883C416.106 192.253 399.123 193.237 391.086 193.321Z" fill="url(#paint42_linear_101_115)"/>
<path d="M236.122 193.321C239.11 194.258 247.009 193.968 251.981 193.883C249.001 192.965 241.128 193.237 236.122 193.321Z" fill="url(#paint43_linear_101_115)"/>
<path d="M360.622 193.902C363.404 193.04 370.539 193.256 375.262 193.34C367.105 190.989 305.155 192.787 293.529 192.787C302.648 195.42 349.786 193.612 360.622 193.902Z" fill="url(#paint44_linear_101_115)"/>
<path d="M433.785 193.902C432.223 193.415 430.78 193.387 427.681 193.34C429.252 193.818 430.694 193.846 433.785 193.902Z" fill="url(#paint45_linear_101_115)"/>
<path d="M1224.29 220.177L1179.16 220.73C1133.12 223.306 946.616 219.728 899.795 214.585C847.187 208.796 787.976 209.555 735.102 203.953C689.673 199.148 486.771 193.902 437.443 193.902V194.464C463.391 194.52 560.587 196.956 588.716 198.38C703.127 204.159 816.388 210.557 930.293 218.519C1026.29 225.198 1193.5 226.425 1291.39 219.634C1299 219.1 1335.75 216.496 1375 213.761V212.44C1324.92 215.765 1274.7 218.697 1224.29 220.177Z" fill="url(#paint46_linear_101_115)"/>
<path d="M971.765 202.276C825.06 194.932 676.398 185.303 528.938 183.261C385.814 181.266 238.483 180.788 95.8655 185.472L3.49481 189.584V194.108L48.2892 191.645C71.7296 189.256 96.7242 191.101 119.04 188.834C169.364 185.94 227.69 187.364 280.075 186.024C380.611 183.476 650.631 189.059 744.856 195.532C856.125 203.185 996.098 211.203 1108.4 211.194C1200.39 211.194 1286.45 207.597 1375 202.763V197.705C1240.6 204.45 1107.77 209.086 971.765 202.276Z" fill="url(#paint47_linear_101_115)"/>
<path d="M1164.52 267.163C1156.87 264.793 1095.66 266.601 1084 266.601C1088.36 268.081 1101.88 268.175 1108.4 268.278C1114.97 266.367 1154.7 267.604 1164.52 267.163Z" fill="url(#paint48_linear_101_115)"/>
<path d="M206.877 193.902C209.659 194.764 216.794 194.539 221.517 194.464C218.735 193.584 211.599 193.799 206.877 193.902Z" fill="url(#paint49_linear_101_115)"/>
<path d="M1168.17 266.601H1166.96V267.163H1197.45C1202.6 265.627 1269.82 265.103 1282.84 264.353C1305.62 263.06 1340.29 260.99 1375 258.47V257.178C1294.8 263.782 1176.55 265.552 1168.17 266.601Z" fill="url(#paint50_linear_101_115)"/>
<path d="M1310.9 230.8C1282.99 233.788 1252.9 232.476 1225.51 235.277C1189.77 238.94 1002.75 237.254 962.011 233.038C906.681 227.315 846.311 227.249 792.441 221.292C731.264 216.43 667.855 216.056 605.794 209.545C568.109 205.592 497.427 205.976 456.96 203.925C384.646 200.3 207.907 202.548 125.145 206.735C104.323 207.794 45.9366 212.131 3.49481 215.091V218.669L121.478 210.66C258.807 201.171 575.424 207.307 719.243 220.721C882.382 235.942 1057.9 246.218 1224.29 240.298C1252.62 239.296 1317.47 234.678 1375 230.341V225.966L1310.9 230.8Z" fill="url(#paint51_linear_101_115)"/>
<path d="M1252.35 28.3078L1148.66 33.9282C1119.34 36.2325 1083.4 33.4879 1057.16 36.1669C1006.34 41.3751 773.285 23.2401 735.102 18.2755C683.01 11.4655 628.934 6.30416 576.034 0H510.426C609.769 9.23611 710.941 22.0037 779.012 29.4319C836.3 35.6799 894.514 37.1786 952.214 41.7311C1023.93 47.3983 1238.99 36.9444 1299.9 30.5466L1374.97 23.6148V18.3785C1334.3 22.1067 1293.42 25.5632 1252.35 28.3078Z" fill="url(#paint52_linear_101_115)"/>
<path d="M1060.82 266.601C1063.04 267.294 1067.8 267.229 1071.8 267.163C1069.59 266.47 1064.82 266.536 1060.82 266.601Z" fill="url(#paint53_linear_101_115)"/>
<path d="M1371.9 28.3078C1285.08 37.2348 1206.8 39.3424 1127.91 45.656C1087.56 48.8783 928.275 47.8479 892.471 43.9699C832.007 37.469 773.071 35.2209 715.586 27.165C634.523 15.8588 550.043 8.43052 467.092 0H415.823C480.134 3.81247 571.758 12.4303 613.109 18.2474C665.975 25.6756 721.708 31.3615 775.389 38.3776C841.743 47.0517 907.729 47.3233 951.063 51.8009C979.398 54.7328 1041 51.8946 1071.84 51.8009C1122.26 51.6604 1274.88 40.888 1318.26 36.7009C1324.53 36.092 1347.86 33.7221 1375.04 31.0056V27.9893L1371.9 28.3078Z" fill="url(#paint54_linear_101_115)"/>
<path d="M1290.17 16.5613C1230.92 22.3503 1166.01 22.472 1105.96 25.5164C1057.76 27.9519 964.887 24.9075 915.654 22.7062C832.797 19.0342 752.524 9.54523 672.217 0H646.407C736.287 10.9035 835.991 21.3011 921.75 24.9543C951.484 26.2189 992.964 25.8911 1019.35 27.1931C1095.96 31.0618 1288.96 20.7485 1357.26 12.6458C1363.01 11.9713 1368.86 11.2969 1374.79 10.6412C1374.67 10.0057 1374.52 9.37964 1374.33 8.76774C1333.98 12.4865 1296.31 15.9243 1290.17 16.5613Z" fill="url(#paint55_linear_101_115)"/>
<path d="M1284.06 7.05354C1230.72 13.0205 1173.38 11.5967 1119.38 14.3319C1040.87 18.2942 872.508 12.1306 799.757 3.09119L774.342 0H743.568C752.06 1.07723 760.243 2.12637 768.022 3.13803C830.513 11.2969 904.011 11.4374 953.485 16.5613C1010.32 22.4533 1249.96 13.7511 1304.82 8.13077C1310.47 7.56874 1337.81 4.94591 1369.39 1.96712C1367.77 0.852083 1365.92 0.183493 1364.01 0.0187345C1332.84 2.54789 1303.16 4.91781 1284.06 7.05354Z" fill="url(#paint56_linear_101_115)"/>
<path d="M1364.58 182.661C1342.45 183.383 1226.72 184.535 1212.08 186.015C1171.28 190.071 945.654 182.914 893.69 179.861C805.904 174.709 597.894 173.528 536.254 169.8C478.151 166.269 160.769 170.84 77.5683 173.144L3.49481 175.936V178.615L70.2442 175.982C93.4786 175.289 198.359 174.643 212.973 173.172C246.271 169.875 666.275 172.844 703.385 176.535C719.347 178.118 999.885 188.207 1023.01 188.834C1095.51 190.811 1279.07 191.813 1331.64 186.605C1333.77 186.39 1351.96 185.593 1375 184.628V182.24L1364.58 182.661Z" fill="url(#paint57_linear_101_115)"/>
<path d="M1364.58 161.997C1296.22 165.585 1061.11 161.744 986.404 158.082C911.36 154.41 768.434 155.487 707.042 151.927C686.676 149.913 661.235 153.239 642.388 151.375C573.209 147.984 152.432 155.122 3.49481 157.782V165.697L112.944 162.559C188.047 161.482 529.874 156.171 591.197 159.749C656.813 163.599 821.471 162.559 909.592 167.58C935.917 169.098 1116.67 171.617 1126.74 172.62C1161.61 176.076 1280.29 172.807 1375.04 169.978V161.548C1371.06 161.688 1367.55 161.847 1364.58 161.997Z" fill="url(#paint58_linear_101_115)"/>
<path d="M1112.06 146.897C957.503 139.235 801.165 139.853 646.046 140.181C431.338 140.64 218.056 144.649 3.49481 147.89V152.911C18.993 152.855 34.3022 152.639 47.07 151.375C66.5951 149.436 327.308 147.628 355.711 147.459C515.26 146.363 880.794 142.776 1029.1 151.927C1072.62 154.606 1210.8 154.588 1236.49 155.843C1273.28 157.651 1324.6 156.677 1375 155.506V149.276C1286.85 150.054 1189.73 150.747 1112.06 146.897Z" fill="url(#paint59_linear_101_115)"/>
<path d="M1307.25 130.111C1248.68 127.198 1048.49 120.482 1005.93 116.135C946.599 110.065 693.571 120.051 626.538 123.404C584.405 125.512 479.378 126.083 447.197 127.882C368.856 132.256 128.94 132.828 3.49481 132.903V134.776C37.3503 134.345 72.4337 133.839 105.671 134.607C142.987 135.544 512.727 128.987 544.84 127.338C588.26 125.165 706.338 124.903 741.241 122.861C820.235 118.243 981.939 119.03 1053.54 123.423C1153.87 129.577 1267.21 133.268 1375.04 134.607V132.294C1352.13 131.872 1329.47 131.226 1307.25 130.111Z" fill="url(#paint60_linear_101_115)"/>
<path d="M1329.2 115.573C1290.71 113.006 1154.75 107.714 1154.75 89.2792C1185.62 75.5375 1235.77 71.6501 1281.62 64.6715C1301.33 61.674 1324.26 56.7374 1346.28 55.7164C1335.24 53.0748 1146.1 80.0712 1126.69 85.9258C1122.98 87.0592 1120.68 89.2418 1116.94 90.3939C1116.94 92.0332 1116.88 93.4477 1118.16 94.3188C1132.76 107.573 1269.67 116.079 1375 120.107V118.233C1359.75 117.493 1344.54 116.594 1329.2 115.573Z" fill="url(#paint61_linear_101_115)"/>
<path d="M922.969 261.562V262.124C939.154 264.681 961.607 264.091 980.308 264.934C975.86 261.815 934.766 261.562 922.969 261.562Z" fill="url(#paint62_linear_101_115)"/>
<path d="M1274.31 287.294C1223.23 290.347 1079.76 290.235 1025.45 289.532C886.692 287.743 676.518 275.481 544.797 263.8C456.771 255.998 303.996 255.492 211.754 258.77C169.252 260.278 65.1011 268.137 3.49481 272.559V275.135L143.45 265.487C180.749 262.227 246.82 262.423 275.198 261.009C361.695 256.709 468.216 262.808 553.34 267.725C623.464 271.772 696.069 277.018 765.609 281.701C899.554 290.731 1075.88 293.954 1212.09 291.209C1266.7 290.113 1320.86 287.827 1375 284.877V282.469C1334.34 284.408 1293.56 286.151 1274.31 287.294Z" fill="url(#paint63_linear_101_115)"/>
<path d="M1203.55 283.94C1158.25 286.984 981.527 283.874 929.074 281.13C800.238 274.46 672.088 267.519 544.797 255.979C455.732 247.895 301.48 247.67 210.535 250.939C141.115 253.44 72.1246 259.36 3.49481 265.093V269.102C65.5819 264.531 171.287 256.419 212.999 254.902C240.475 253.899 287.648 255.539 310.599 253.225C349.949 249.169 523.761 256.981 560.681 261.009C627.139 268.25 785.692 276.137 864.437 281.139C984.644 288.802 1220.97 289.654 1329.23 282.263C1331.73 282.095 1350.98 280.868 1375.03 279.35V277.589C1317.44 280.39 1255.57 280.455 1203.55 283.94Z" fill="url(#paint64_linear_101_115)"/>
<path d="M276.417 236.401C280.624 237.666 293.109 237.048 299.6 236.954C295.367 235.689 282.9 236.308 276.417 236.401Z" fill="url(#paint65_linear_101_115)"/>
<path d="M450.864 231.371C452.169 230.95 451.988 231.015 454.521 230.809V229.685C433.373 228.973 265.032 223.98 250.796 229.123C258.978 229.666 279.937 229.544 289.829 228.561C342.394 225.994 399.346 230.434 450.864 231.371Z" fill="url(#paint66_linear_101_115)"/>
<path d="M1356.04 287.856C1326.93 288.699 1296.28 289.401 1266.99 291.209C1225.84 293.757 987.469 295.106 954.687 291.771C951.965 291.499 759.024 283.181 730.225 281.139C651.404 275.575 522.936 270.835 452.083 265.487C425.028 263.426 397.723 264.55 371.57 263.248C287.253 259.014 108.582 270.479 3.49481 277.486V289.579C70.3301 286.385 186.691 280.765 199.562 280.025C254.222 276.905 457.312 278.104 520.395 282.835L807.106 296.811L946.204 301.279C987.538 304.014 1242.43 303.087 1290.22 300.164C1295.17 299.864 1333.75 298.188 1375.05 296.464V286.76L1356.04 287.856Z" fill="url(#paint67_linear_101_115)"/>
<path d="M3.49481 13.0205V16.2334C10.0805 15.4091 16.5201 14.5567 22.6679 13.7699C81.6553 6.19175 165.715 3.07246 209.127 0H149.77C96.3721 4.06539 41.2571 9.36725 3.49481 13.0205Z" fill="url(#paint68_linear_101_115)"/>
<path d="M394.744 9.85435H397.182C396.405 9.51496 395.58 9.32481 394.744 9.29231V9.85435Z" fill="url(#paint69_linear_101_115)"/>
<path d="M1236.49 305.194C1181.81 308.126 855.936 306.131 791.213 299.574C738.786 297.907 692.077 296.324 650.159 294.89C317.081 283.219 286.729 278.545 95.8655 288.98C75.1555 290.113 36.32 292.727 3.49481 294.45V304.061L141.003 299.049L237.375 297.363C306.778 293.354 552.859 299.433 622.897 303.518C704.776 308.295 922.772 309.663 979.114 313.025C1000.25 315.133 1026.59 311.639 1046.21 313.587C1092.37 315.742 1257.25 312.135 1375.06 308.904V300.333C1311.12 302.562 1241.32 304.941 1236.49 305.194ZM87.3222 291.218C89.4259 290.713 88.8849 290.722 90.9886 291.218H87.3222ZM115.382 290.094C117.486 289.598 116.945 289.598 119.04 290.094H115.382ZM189.799 287.856C191.894 287.359 191.362 287.368 193.457 287.856H189.799ZM220.297 286.741C219.462 286.775 218.638 286.962 217.859 287.294H209.315C210.44 286.095 210.38 286.488 211.754 285.617L220.297 286.179V286.741ZM241.033 286.741H232.498V286.179C235.512 285.898 236.98 285.664 241.033 285.617V286.741ZM306.907 286.179L303.257 285.617C303.257 285.429 303.257 285.251 303.257 285.064H306.915L306.907 286.179Z" fill="url(#paint70_linear_101_115)"/>
<path d="M239.814 238.069C243.824 236.86 255.544 237.422 261.777 237.516C255.449 235.642 238.268 237.226 231.279 237.516C233.142 238.097 236.276 238.106 239.814 238.069Z" fill="url(#paint71_linear_101_115)"/>
<path d="M1345.06 314.149C1288.68 316.96 1201.47 313.587 1148.66 316.388C1118.91 317.962 831.775 315.611 794.905 313.578C743.113 310.768 503.171 307.452 475.291 304.632C444.055 301.466 198.471 304.117 149.581 304.632C106.59 305.082 51.698 308.079 3.52917 309.494V315.208L136.126 311.929C158.751 311.564 273.807 311.929 284.952 310.805C314.737 307.864 715.646 316.426 732.664 318.084C763.84 321.175 864.591 318.411 903.453 320.322C989.006 324.51 1220.16 321.353 1375 318.524V313.119C1360.52 313.55 1349.21 313.943 1345.06 314.149Z" fill="url(#paint72_linear_101_115)"/>
<path d="M69.0336 247.586C72.4681 246.527 83.2266 245.9 87.3223 245.9C82.2822 244.532 68.6215 246.612 61.7095 247.024C63.4182 247.558 65.7107 247.586 69.0336 247.586Z" fill="url(#paint73_linear_101_115)"/>
<path d="M783.924 253.74C799.877 255.042 911.283 262.171 920.556 262.124C916.203 258.489 826.743 255.941 813.229 254.293C787.092 251.108 465.881 225.254 455.792 230.8C472.776 232.345 491.425 231.174 509.473 233.038C513.972 233.507 655.791 243.436 666.833 244.223C705.076 246.977 746.144 250.649 783.924 253.74Z" fill="url(#paint74_linear_101_115)"/>
<path d="M53.1662 248.7C52.3888 248.362 51.564 248.172 50.7277 248.138V248.7H53.1662Z" fill="url(#paint75_linear_101_115)"/>
<path d="M283.732 7.05354C289.391 8.71155 320.559 7.69052 330.098 7.61558C324.431 5.95758 293.263 6.97861 283.732 7.05354Z" fill="url(#paint76_linear_101_115)"/>
<path d="M991.29 264.363V264.925C1005.18 267.126 1037.07 267.163 1053.5 267.163C1054.28 266.822 1055.1 266.632 1055.94 266.601C1049.65 264.662 1003.73 264.363 991.29 264.363Z" fill="url(#paint77_linear_101_115)"/>
<path d="M50.7277 239.193H49.5085V239.755H59.2453C70.7594 236.139 229.03 229.554 244.708 229.685V228.561C208.646 227.231 77.9375 235.118 50.7277 239.193Z" fill="url(#paint78_linear_101_115)"/>
<path d="M99.5233 244.223C100.957 244.673 101.567 244.673 104.409 244.785C102.975 244.335 102.365 244.335 99.5233 244.223Z" fill="url(#paint79_linear_101_115)"/>
<path d="M209.316 238.069C210.749 238.528 211.359 238.528 214.201 238.631C212.767 238.181 212.158 238.181 209.316 238.069Z" fill="url(#paint80_linear_101_115)"/>
<path d="M183.746 239.802H193.5C190.872 237.741 187.747 239.24 183.746 239.24V239.802Z" fill="url(#paint81_linear_101_115)"/>
<path d="M149.547 241.994C150.972 241.535 151.582 241.544 154.424 241.431C151.066 240.495 147.22 241.272 142.223 241.431C143.931 241.965 146.224 241.994 149.547 241.994Z" fill="url(#paint82_linear_101_115)"/>
<path d="M1352.11 29.6942C1354.18 32.961 1355.32 36.8256 1355.39 40.7994C1355.45 44.7732 1354.43 48.6776 1352.45 52.0187C1350.48 55.3598 1347.64 57.9876 1344.3 59.5698C1340.96 61.1519 1337.26 61.6173 1333.68 60.907C1330.09 60.1967 1326.78 58.3428 1324.17 55.5796C1321.55 52.8164 1319.74 49.2681 1318.97 45.3835C1318.2 41.4989 1318.5 37.4525 1319.84 33.756C1321.18 30.0596 1323.49 26.8792 1326.49 24.6171C1330.5 21.5898 1335.46 20.4242 1340.26 21.376C1345.06 22.3278 1349.32 25.3193 1352.11 29.6942V29.6942Z" fill="url(#paint83_linear_101_115)"/>
<path d="M1353.49 28.7481C1355.56 32.0144 1356.7 35.8776 1356.76 39.8492C1356.82 43.8208 1355.8 47.7225 1353.83 51.0607C1351.85 54.399 1349.02 57.0239 1345.67 58.6036C1342.33 60.1832 1338.64 60.6467 1335.06 59.9353C1331.47 59.224 1328.17 57.3697 1325.55 54.6071C1322.93 51.8445 1321.13 48.2976 1320.36 44.4149C1319.59 40.5322 1319.9 36.4881 1321.23 32.7941C1322.57 29.1 1324.88 25.9219 1327.88 23.6617C1331.89 20.6309 1336.85 19.4641 1341.65 20.4179C1346.45 21.3718 1350.71 24.3683 1353.49 28.7481V28.7481Z" fill="url(#paint84_radial_101_115)"/>
<path d="M1350.05 34.5932L1347.26 30.2094L1339.56 36.0358L1338.59 35.8391L1333.25 27.4273L1329.22 30.4623L1334.56 38.8741L1334.38 39.9419L1326.67 45.7684L1329.46 50.1616L1337.17 44.3352L1338.14 44.5225L1343.48 52.9343L1347.51 49.8993L1342.17 41.4875L1342.35 40.4197L1350.05 34.5932Z" fill="url(#paint85_radial_101_115)"/>
<path d="M1333.24 27.4273C1332.7 29.2865 1332.58 31.2575 1332.88 33.1788C1333.3 35.1278 1333.87 37.0333 1334.59 38.8741L1329.25 30.4436L1333.24 27.4273Z" fill="url(#paint86_radial_101_115)"/>
<path d="M1326.67 45.7684C1328.37 46.3515 1330.17 46.4894 1331.93 46.1712C1333.72 45.7109 1335.48 45.0841 1337.17 44.2977L1329.44 50.1241L1326.67 45.7684Z" fill="url(#paint87_radial_101_115)"/>
<path d="M1347.26 30.2094C1347.06 32.2155 1346.47 34.1531 1345.54 35.8953C1344.57 37.485 1343.49 38.9969 1342.32 40.4197L1350.05 34.5933L1347.26 30.2094Z" fill="url(#paint88_radial_101_115)"/>
<path d="M1347.51 49.8993C1345.67 49.681 1343.89 49.0426 1342.3 48.0259C1340.84 46.9593 1339.45 45.7856 1338.14 44.5132L1343.49 52.9437L1347.51 49.8993Z" fill="url(#paint89_radial_101_115)"/>
<path d="M1346.73 322.636C1343.64 324.739 1340.05 325.797 1336.41 325.674C1332.77 325.552 1329.25 324.256 1326.28 321.949C1323.32 319.643 1321.05 316.43 1319.76 312.716C1318.47 309.002 1318.22 304.955 1319.04 301.085C1319.86 297.216 1321.71 293.698 1324.36 290.976C1327.01 288.254 1330.34 286.451 1333.93 285.794C1337.52 285.137 1341.21 285.656 1344.53 287.285C1347.85 288.914 1350.65 291.58 1352.58 294.947C1353.87 297.183 1354.73 299.675 1355.13 302.278C1355.53 304.881 1355.46 307.544 1354.92 310.116C1354.37 312.688 1353.37 315.118 1351.96 317.266C1350.56 319.415 1348.78 321.239 1346.73 322.636V322.636Z" fill="url(#paint90_linear_101_115)"/>
<path d="M1348.12 321.681C1345.03 323.785 1341.44 324.843 1337.8 324.722C1334.16 324.6 1330.64 323.304 1327.67 320.997C1324.71 318.691 1322.44 315.477 1321.15 311.763C1319.86 308.049 1319.61 304.001 1320.43 300.131C1321.24 296.261 1323.1 292.743 1325.75 290.021C1328.4 287.299 1331.73 285.496 1335.32 284.84C1338.91 284.184 1342.6 284.704 1345.92 286.335C1349.24 287.965 1352.04 290.633 1353.97 294C1355.25 296.237 1356.12 298.728 1356.52 301.33C1356.92 303.931 1356.84 306.594 1356.3 309.164C1355.76 311.735 1354.75 314.163 1353.35 316.311C1351.95 318.458 1350.17 320.283 1348.12 321.681V321.681Z" fill="url(#paint91_radial_101_115)"/>
<path d="M1342.92 317.653L1347.08 314.824L1342.11 306.15L1342.33 305.091L1350.28 299.668L1347.68 295.143L1339.73 300.567L1338.77 300.333L1333.79 291.649L1329.65 294.488L1334.62 303.162L1334.4 304.211L1326.44 309.644L1329.04 314.168L1336.99 308.735L1337.95 308.979L1342.92 317.653Z" fill="url(#paint92_radial_101_115)"/>
<path d="M1350.28 299.668C1348.6 298.995 1346.81 298.764 1345.03 298.993C1343.23 299.355 1341.45 299.882 1339.73 300.567L1347.68 295.143L1350.28 299.668Z" fill="url(#paint93_radial_101_115)"/>
<path d="M1333.79 291.649C1333.17 293.479 1332.97 295.439 1333.18 297.373C1333.5 299.344 1333.98 301.281 1334.61 303.162L1329.65 294.488L1333.79 291.649Z" fill="url(#paint94_radial_101_115)"/>
<path d="M1347.08 314.824C1345.24 314.523 1343.49 313.805 1341.93 312.716C1340.52 311.567 1339.18 310.315 1337.93 308.969L1342.9 317.643L1347.08 314.824Z" fill="url(#paint95_radial_101_115)"/>
<path d="M1329.04 314.168C1329.31 312.168 1329.97 310.253 1330.97 308.548C1332.02 307.013 1333.17 305.557 1334.4 304.192L1326.45 309.625L1329.04 314.168Z" fill="url(#paint96_radial_101_115)"/>
<path d="M56.5492 296.502C58.1957 300.042 58.8433 304.036 58.4101 307.978C57.977 311.92 56.4825 315.634 54.1156 318.65C51.7486 321.666 48.6154 323.848 45.1117 324.922C41.6081 325.996 37.8913 325.913 34.4309 324.684C30.9706 323.454 27.9219 321.133 25.6701 318.014C23.4183 314.895 22.0645 311.118 21.7797 307.16C21.4949 303.201 22.2918 299.24 24.0698 295.776C25.8479 292.312 28.5272 289.5 31.7693 287.696C33.9261 286.498 36.2782 285.775 38.6912 285.569C41.1042 285.363 43.5308 285.678 45.8322 286.496C48.1336 287.313 50.2647 288.618 52.1036 290.335C53.9425 292.052 55.4531 294.147 56.5492 296.502Z" fill="url(#paint97_linear_101_115)"/>
<path d="M57.9401 295.555C59.588 299.097 60.2362 303.092 59.8029 307.036C59.3696 310.979 57.8743 314.694 55.5059 317.711C53.1376 320.727 50.0025 322.91 46.4972 323.982C42.9919 325.055 39.2738 324.97 35.8128 323.738C32.3519 322.505 29.3036 320.181 27.0534 317.059C24.8032 313.937 23.4521 310.156 23.171 306.197C22.8898 302.237 23.6912 298.275 25.4738 294.812C27.2565 291.349 29.9403 288.54 33.186 286.741C35.3416 285.545 37.6922 284.824 40.1033 284.619C42.5145 284.415 44.9389 284.731 47.238 285.55C49.5371 286.368 51.6657 287.674 53.502 289.39C55.3384 291.107 56.8465 293.202 57.9401 295.555V295.555Z" fill="url(#paint98_radial_101_115)"/>
<path d="M53.8016 300.848L51.5863 296.08L43.2233 300.717L42.2788 300.38L38.0372 291.256L33.6754 293.682L37.917 302.796L37.6165 303.827L29.2449 308.464L31.4688 313.213L39.8232 308.585L40.7677 308.923L45.0179 318.046L49.3797 315.629L45.1295 306.506L45.4386 305.485L53.8016 300.848Z" fill="url(#paint99_radial_101_115)"/>
<path d="M38.0287 291.256C37.2496 293.028 36.8699 294.977 36.9211 296.942C37.0834 298.936 37.4052 300.91 37.8827 302.843L33.6411 293.729L38.0287 291.256Z" fill="url(#paint100_radial_101_115)"/>
<path d="M29.2449 308.464C30.8531 309.293 32.6187 309.694 34.3967 309.634C36.2215 309.457 38.0286 309.106 39.7974 308.585L31.4344 313.213L29.2449 308.464Z" fill="url(#paint101_radial_101_115)"/>
<path d="M51.5863 296.08C51.1483 298.039 50.3348 299.875 49.1994 301.466C48.0315 302.898 46.7749 304.241 45.4386 305.485L53.8016 300.848L51.5863 296.08Z" fill="url(#paint102_radial_101_115)"/>
<path d="M49.3797 315.676C47.5854 315.194 45.9036 314.307 44.4426 313.072C43.1318 311.799 41.9038 310.428 40.7677 308.969L45.0608 318.093L49.3797 315.676Z" fill="url(#paint103_radial_101_115)"/>
<path d="M57.1502 48.8127C55.7597 52.484 53.4023 55.623 50.3764 57.8326C47.3505 60.0422 43.7919 61.2232 40.1507 61.2262C36.5094 61.2292 32.9492 60.0541 29.9202 57.8495C26.8912 55.645 24.5295 52.5099 23.1338 48.8409C21.7381 45.1719 21.3711 41.1337 22.0793 37.2371C22.7874 33.3406 24.5388 29.7606 27.112 26.9501C29.6853 24.1395 32.9647 22.2246 36.5355 21.4475C40.1064 20.6704 43.8083 21.0661 47.173 22.5844C51.6821 24.6219 55.2656 28.5285 57.1363 33.4463C59.007 38.3641 59.012 43.8909 57.1502 48.8127V48.8127Z" fill="url(#paint104_linear_101_115)"/>
<path d="M58.5412 47.8666C57.1506 51.538 54.7933 54.6769 51.7673 56.8865C48.7414 59.0961 45.1828 60.2771 41.5416 60.2801C37.9004 60.2832 34.3401 59.1081 31.3111 56.9035C28.2821 54.6989 25.9204 51.5638 24.5247 47.8948C23.1291 44.2258 22.7621 40.1876 23.4702 36.2911C24.1783 32.3945 25.9297 28.8145 28.503 26.004C31.0762 23.1934 34.3556 21.2785 37.9265 20.5014C41.4973 19.7243 45.1992 20.12 48.564 21.6383C53.0715 23.6778 56.6535 27.5846 58.5239 32.5017C60.3944 37.4188 60.4006 42.9446 58.5412 47.8666V47.8666Z" fill="url(#paint105_radial_101_115)"/>
<path d="M52.1616 47.876L54.0334 42.9395L45.3699 39.024L44.9921 38.031L48.5726 28.5795L44.0476 26.5374L40.4672 35.989L39.557 36.4105L30.8849 32.495L29.0131 37.4222L37.6852 41.3377L38.063 42.3306L34.474 51.7915L38.9989 53.8336L42.5794 44.3727L43.4981 43.9605L52.1616 47.876Z" fill="url(#paint106_radial_101_115)"/>
<path d="M48.5726 28.5795C46.8486 29.0989 45.2644 30.0627 43.9532 31.3896C42.6669 32.8357 41.5003 34.403 40.4672 36.0733L44.0476 26.5374L48.5726 28.5795Z" fill="url(#paint107_radial_101_115)"/>
<path d="M30.9107 32.495C31.3905 34.3741 32.2735 36.1015 33.4866 37.5346C34.8139 38.9355 36.2504 40.208 37.7797 41.3377L29.0131 37.469L30.9107 32.495Z" fill="url(#paint108_radial_101_115)"/>
<path d="M54.0334 42.9395C52.3857 43.8495 50.5804 44.3698 48.7357 44.4663C46.981 44.4351 45.2306 44.266 43.4981 43.9605L52.1616 47.876L54.0334 42.9395Z" fill="url(#paint109_radial_101_115)"/>
<path d="M38.9989 53.8336C38.1647 52.0355 37.685 50.0667 37.5908 48.054C37.6301 46.1368 37.7878 44.2246 38.063 42.3306L34.474 51.7915L38.9989 53.8336Z" fill="url(#paint110_radial_101_115)"/>
<defs>
<linearGradient id="paint0_linear_101_115" x1="1.30743" y1="177.563" x2="1383.07" y2="177.563" gradientUnits="userSpaceOnUse">
<stop stop-color="#340000"/>
<stop offset="1" stop-color="#2E0000"/>
</linearGradient>
<linearGradient id="paint1_linear_101_115" x1="385.119" y1="491.378" x2="991.076" y2="-45.0055" gradientUnits="userSpaceOnUse">
<stop stop-color="#7B331F"/>
<stop offset="0.03" stop-color="#773321"/>
<stop offset="0.19" stop-color="#6C3127"/>
<stop offset="0.4" stop-color="#65302B"/>
<stop offset="1" stop-color="#63302C"/>
</linearGradient>
<linearGradient id="paint2_linear_101_115" x1="25.2781" y1="-281.409" x2="25.2781" y2="631.061" gradientUnits="userSpaceOnUse">
<stop stop-color="#150000"/>
<stop offset="1" stop-color="#7A0500"/>
</linearGradient>
<linearGradient id="paint3_linear_101_115" x1="5447.61" y1="-2693.19" x2="5447.61" y2="6039.18" gradientUnits="userSpaceOnUse">
<stop stop-color="#150000"/>
<stop offset="1" stop-color="#7A0500"/>
</linearGradient>
<linearGradient id="paint4_linear_101_115" x1="23756.6" y1="-2956.25" x2="23756.6" y2="7257.61" gradientUnits="userSpaceOnUse">
<stop stop-color="#150000"/>
<stop offset="1" stop-color="#7A0500"/>
</linearGradient>
<linearGradient id="paint5_linear_101_115" x1="33.9147" y1="-82.4628" x2="33.9147" y2="1002.78" gradientUnits="userSpaceOnUse">
<stop stop-color="#150000"/>
<stop offset="1" stop-color="#7A0500"/>
</linearGradient>
<linearGradient id="paint6_linear_101_115" x1="3179.04" y1="-337.923" x2="3179.04" y2="1099.35" gradientUnits="userSpaceOnUse">
<stop stop-color="#150000"/>
<stop offset="1" stop-color="#7A0500"/>
</linearGradient>
<linearGradient id="paint7_linear_101_115" x1="247.224" y1="-86.9739" x2="247.224" y2="1007.39" gradientUnits="userSpaceOnUse">
<stop stop-color="#150000"/>
<stop offset="1" stop-color="#7A0500"/>
</linearGradient>
<linearGradient id="paint8_linear_101_115" x1="14.5776" y1="-93.9402" x2="14.5776" y2="371.954" gradientUnits="userSpaceOnUse">
<stop stop-color="#150000"/>
<stop offset="1" stop-color="#7A0500"/>
</linearGradient>
<linearGradient id="paint9_linear_101_115" x1="264.575" y1="83.7397" x2="264.575" y2="622.183" gradientUnits="userSpaceOnUse">
<stop stop-color="#150000"/>
<stop offset="1" stop-color="#7A0500"/>
</linearGradient>
<linearGradient id="paint10_linear_101_115" x1="62.8907" y1="-120.454" x2="62.8907" y2="427.172" gradientUnits="userSpaceOnUse">
<stop stop-color="#150000"/>
<stop offset="1" stop-color="#7A0500"/>
</linearGradient>
<linearGradient id="paint11_linear_101_115" x1="57.7334" y1="-121.214" x2="57.7334" y2="426.961" gradientUnits="userSpaceOnUse">
<stop stop-color="#150000"/>
<stop offset="1" stop-color="#7A0500"/>
</linearGradient>
<linearGradient id="paint12_linear_101_115" x1="37.2669" y1="-117.079" x2="37.2669" y2="421.426" gradientUnits="userSpaceOnUse">
<stop stop-color="#150000"/>
<stop offset="1" stop-color="#7A0500"/>
</linearGradient>
<linearGradient id="paint13_linear_101_115" x1="2970.33" y1="-1300.16" x2="2970.33" y2="3244.18" gradientUnits="userSpaceOnUse">
<stop stop-color="#150000"/>
<stop offset="1" stop-color="#7A0500"/>
</linearGradient>
<linearGradient id="paint14_linear_101_115" x1="130134" y1="-15539.3" x2="130134" y2="34981.7" gradientUnits="userSpaceOnUse">
<stop stop-color="#150000"/>
<stop offset="1" stop-color="#7A0500"/>
</linearGradient>
<linearGradient id="paint15_linear_101_115" x1="563.642" y1="-266.233" x2="563.642" y2="992.945" gradientUnits="userSpaceOnUse">
<stop stop-color="#150000"/>
<stop offset="1" stop-color="#7A0500"/>
</linearGradient>
<linearGradient id="paint16_linear_101_115" x1="72278.9" y1="-8856.31" x2="72278.9" y2="20028.3" gradientUnits="userSpaceOnUse">
<stop stop-color="#150000"/>
<stop offset="1" stop-color="#7A0500"/>
</linearGradient>
<linearGradient id="paint17_linear_101_115" x1="387378" y1="-1250.54" x2="387378" y2="2804.24" gradientUnits="userSpaceOnUse">
<stop stop-color="#150000"/>
<stop offset="1" stop-color="#7A0500"/>
</linearGradient>
<linearGradient id="paint18_linear_101_115" x1="1753.5" y1="-155.509" x2="1753.5" y2="391.558" gradientUnits="userSpaceOnUse">
<stop stop-color="#150000"/>
<stop offset="1" stop-color="#7A0500"/>
</linearGradient>
<linearGradient id="paint19_linear_101_115" x1="102029" y1="-19285.3" x2="102029" y2="43367.4" gradientUnits="userSpaceOnUse">
<stop stop-color="#150000"/>
<stop offset="1" stop-color="#7A0500"/>
</linearGradient>
<linearGradient id="paint20_linear_101_115" x1="3752.72" y1="-155.234" x2="3752.72" y2="392.727" gradientUnits="userSpaceOnUse">
<stop stop-color="#150000"/>
<stop offset="1" stop-color="#7A0500"/>
</linearGradient>
<linearGradient id="paint21_linear_101_115" x1="14064.2" y1="-656.248" x2="14064.2" y2="1525.29" gradientUnits="userSpaceOnUse">
<stop stop-color="#150000"/>
<stop offset="1" stop-color="#7A0500"/>
</linearGradient>
<linearGradient id="paint22_linear_101_115" x1="2981.15" y1="-132.005" x2="2981.15" y2="415.063" gradientUnits="userSpaceOnUse">
<stop stop-color="#150000"/>
<stop offset="1" stop-color="#7A0500"/>
</linearGradient>
<linearGradient id="paint23_linear_101_115" x1="1211.49" y1="-160.695" x2="1211.49" y2="386.822" gradientUnits="userSpaceOnUse">
<stop stop-color="#150000"/>
<stop offset="1" stop-color="#7A0500"/>
</linearGradient>
<linearGradient id="paint24_linear_101_115" x1="5110.05" y1="-252.19" x2="5110.05" y2="901.979" gradientUnits="userSpaceOnUse">
<stop stop-color="#150000"/>
<stop offset="1" stop-color="#7A0500"/>
</linearGradient>
<linearGradient id="paint25_linear_101_115" x1="1.10095e+06" y1="-4010.43" x2="1.10095e+06" y2="10032.1" gradientUnits="userSpaceOnUse">
<stop stop-color="#150000"/>
<stop offset="1" stop-color="#7A0500"/>
</linearGradient>
<linearGradient id="paint26_linear_101_115" x1="163213" y1="-19360.4" x2="163213" y2="43528.4" gradientUnits="userSpaceOnUse">
<stop stop-color="#150000"/>
<stop offset="1" stop-color="#7A0500"/>
</linearGradient>
<linearGradient id="paint27_linear_101_115" x1="3266.81" y1="-150.195" x2="3266.81" y2="388.678" gradientUnits="userSpaceOnUse">
<stop stop-color="#150000"/>
<stop offset="1" stop-color="#7A0500"/>
</linearGradient>
<linearGradient id="paint28_linear_101_115" x1="1664.52" y1="-157.202" x2="1664.52" y2="389.914" gradientUnits="userSpaceOnUse">
<stop stop-color="#150000"/>
<stop offset="1" stop-color="#7A0500"/>
</linearGradient>
<linearGradient id="paint29_linear_101_115" x1="1.0973e+06" y1="-1973.12" x2="1.0973e+06" y2="5507.6" gradientUnits="userSpaceOnUse">
<stop stop-color="#150000"/>
<stop offset="1" stop-color="#7A0500"/>
</linearGradient>
<linearGradient id="paint30_linear_101_115" x1="3123.41" y1="-51.0537" x2="3123.41" y2="496.465" gradientUnits="userSpaceOnUse">
<stop stop-color="#150000"/>
<stop offset="1" stop-color="#7A0500"/>
</linearGradient>
<linearGradient id="paint31_linear_101_115" x1="2282.85" y1="-130.328" x2="2282.85" y2="416.739" gradientUnits="userSpaceOnUse">
<stop stop-color="#150000"/>
<stop offset="1" stop-color="#7A0500"/>
</linearGradient>
<linearGradient id="paint32_linear_101_115" x1="4613.74" y1="-52.1993" x2="4613.74" y2="497.019" gradientUnits="userSpaceOnUse">
<stop stop-color="#150000"/>
<stop offset="1" stop-color="#7A0500"/>
</linearGradient>
<linearGradient id="paint33_linear_101_115" x1="5300.61" y1="-81.5606" x2="5300.61" y2="512.075" gradientUnits="userSpaceOnUse">
<stop stop-color="#150000"/>
<stop offset="1" stop-color="#7A0500"/>
</linearGradient>
<linearGradient id="paint34_linear_101_115" x1="11229.2" y1="-469.108" x2="11229.2" y2="1384.22" gradientUnits="userSpaceOnUse">
<stop stop-color="#150000"/>
<stop offset="1" stop-color="#7A0500"/>
</linearGradient>
<linearGradient id="paint35_linear_101_115" x1="241856" y1="-23344.5" x2="241856" y2="52476.9" gradientUnits="userSpaceOnUse">
<stop stop-color="#150000"/>
<stop offset="1" stop-color="#7A0500"/>
</linearGradient>
<linearGradient id="paint36_linear_101_115" x1="947412" y1="-16309" x2="947412" y2="36631.8" gradientUnits="userSpaceOnUse">
<stop stop-color="#150000"/>
<stop offset="1" stop-color="#7A0500"/>
</linearGradient>
<linearGradient id="paint37_linear_101_115" x1="5210.83" y1="-115.272" x2="5210.83" y2="431.938" gradientUnits="userSpaceOnUse">
<stop stop-color="#150000"/>
<stop offset="1" stop-color="#7A0500"/>
</linearGradient>
<linearGradient id="paint38_linear_101_115" x1="7089.23" y1="-114.091" x2="7089.23" y2="432.969" gradientUnits="userSpaceOnUse">
<stop stop-color="#150000"/>
<stop offset="1" stop-color="#7A0500"/>
</linearGradient>
<linearGradient id="paint39_linear_101_115" x1="3229.35" y1="-153.304" x2="3229.35" y2="393.876" gradientUnits="userSpaceOnUse">
<stop stop-color="#150000"/>
<stop offset="1" stop-color="#7A0500"/>
</linearGradient>
<linearGradient id="paint40_linear_101_115" x1="2296.89" y1="-129.979" x2="2296.89" y2="417.692" gradientUnits="userSpaceOnUse">
<stop stop-color="#150000"/>
<stop offset="1" stop-color="#7A0500"/>
</linearGradient>
<linearGradient id="paint41_linear_101_115" x1="1692.63" y1="-132.876" x2="1692.63" y2="415.085" gradientUnits="userSpaceOnUse">
<stop stop-color="#150000"/>
<stop offset="1" stop-color="#7A0500"/>
</linearGradient>
<linearGradient id="paint42_linear_101_115" x1="14824.1" y1="-200.862" x2="14824.1" y2="1075.98" gradientUnits="userSpaceOnUse">
<stop stop-color="#150000"/>
<stop offset="1" stop-color="#7A0500"/>
</linearGradient>
<linearGradient id="paint43_linear_101_115" x1="4744.46" y1="-39.6541" x2="4744.46" y2="715.178" gradientUnits="userSpaceOnUse">
<stop stop-color="#150000"/>
<stop offset="1" stop-color="#7A0500"/>
</linearGradient>
<linearGradient id="paint44_linear_101_115" x1="32120.9" y1="-441.897" x2="32120.9" y2="1613.88" gradientUnits="userSpaceOnUse">
<stop stop-color="#150000"/>
<stop offset="1" stop-color="#7A0500"/>
</linearGradient>
<linearGradient id="paint45_linear_101_115" x1="3490.23" y1="24.1811" x2="3490.23" y2="572.253" gradientUnits="userSpaceOnUse">
<stop stop-color="#150000"/>
<stop offset="1" stop-color="#7A0500"/>
</linearGradient>
<linearGradient id="paint46_linear_101_115" x1="989963" y1="-8898.53" x2="989963" y2="20582.6" gradientUnits="userSpaceOnUse">
<stop stop-color="#150000"/>
<stop offset="1" stop-color="#7A0500"/>
</linearGradient>
<linearGradient id="paint47_linear_101_115" x1="1.10095e+06" y1="-8643.78" x2="1.10095e+06" y2="19972.1" gradientUnits="userSpaceOnUse">
<stop stop-color="#150000"/>
<stop offset="1" stop-color="#7A0500"/>
</linearGradient>
<linearGradient id="paint48_linear_101_115" x1="106505" y1="-435.907" x2="106505" y2="1839.94" gradientUnits="userSpaceOnUse">
<stop stop-color="#150000"/>
<stop offset="1" stop-color="#7A0500"/>
</linearGradient>
<linearGradient id="paint49_linear_101_115" x1="3859" y1="-30.1724" x2="3859" y2="695.855" gradientUnits="userSpaceOnUse">
<stop stop-color="#150000"/>
<stop offset="1" stop-color="#7A0500"/>
</linearGradient>
<linearGradient id="paint50_linear_101_115" x1="309125" y1="-2743.17" x2="309125" y2="6984.61" gradientUnits="userSpaceOnUse">
<stop stop-color="#150000"/>
<stop offset="1" stop-color="#7A0500"/>
</linearGradient>
<linearGradient id="paint51_linear_101_115" x1="1.10095e+06" y1="-11782.1" x2="1.10095e+06" y2="27074.8" gradientUnits="userSpaceOnUse">
<stop stop-color="#150000"/>
<stop offset="1" stop-color="#7A0500"/>
</linearGradient>
<linearGradient id="paint52_linear_101_115" x1="949714" y1="-13026.6" x2="949714" y2="29210.9" gradientUnits="userSpaceOnUse">
<stop stop-color="#150000"/>
<stop offset="1" stop-color="#7A0500"/>
</linearGradient>
<linearGradient id="paint53_linear_101_115" x1="14698.9" y1="74.4723" x2="14698.9" y2="697.189" gradientUnits="userSpaceOnUse">
<stop stop-color="#150000"/>
<stop offset="1" stop-color="#7A0500"/>
</linearGradient>
<linearGradient id="paint54_linear_101_115" x1="1.00073e+06" y1="-15960.4" x2="1.00073e+06" y2="35789.8" gradientUnits="userSpaceOnUse">
<stop stop-color="#150000"/>
<stop offset="1" stop-color="#7A0500"/>
</linearGradient>
<linearGradient id="paint55_linear_101_115" x1="857949" y1="-8421.96" x2="857949" y2="18885.2" gradientUnits="userSpaceOnUse">
<stop stop-color="#150000"/>
<stop offset="1" stop-color="#7A0500"/>
</linearGradient>
<linearGradient id="paint56_linear_101_115" x1="770777" y1="-5566.15" x2="770777" y2="12481.4" gradientUnits="userSpaceOnUse">
<stop stop-color="#150000"/>
<stop offset="1" stop-color="#7A0500"/>
</linearGradient>
<linearGradient id="paint57_linear_101_115" x1="1.10095e+06" y1="-6419.39" x2="1.10095e+06" y2="14941.1" gradientUnits="userSpaceOnUse">
<stop stop-color="#150000"/>
<stop offset="1" stop-color="#7A0500"/>
</linearGradient>
<linearGradient id="paint58_linear_101_115" x1="1.10099e+06" y1="-6948.92" x2="1.10099e+06" y2="16070" gradientUnits="userSpaceOnUse">
<stop stop-color="#150000"/>
<stop offset="1" stop-color="#7A0500"/>
</linearGradient>
<linearGradient id="paint59_linear_101_115" x1="1.10095e+06" y1="-4916.44" x2="1.10095e+06" y2="11478.5" gradientUnits="userSpaceOnUse">
<stop stop-color="#150000"/>
<stop offset="1" stop-color="#7A0500"/>
</linearGradient>
<linearGradient id="paint60_linear_101_115" x1="1.10099e+06" y1="-6062.45" x2="1.10099e+06" y2="13964.6" gradientUnits="userSpaceOnUse">
<stop stop-color="#150000"/>
<stop offset="1" stop-color="#7A0500"/>
</linearGradient>
<linearGradient id="paint61_linear_101_115" x1="375590" y1="-19343.8" x2="375590" y2="43556.9" gradientUnits="userSpaceOnUse">
<stop stop-color="#150000"/>
<stop offset="1" stop-color="#7A0500"/>
</linearGradient>
<linearGradient id="paint62_linear_101_115" x1="64473.4" y1="-751.883" x2="64473.4" y2="2533.61" gradientUnits="userSpaceOnUse">
<stop stop-color="#150000"/>
<stop offset="1" stop-color="#7A0500"/>
</linearGradient>
<linearGradient id="paint63_linear_101_115" x1="1.10095e+06" y1="-10346.7" x2="1.10095e+06" y2="24034.4" gradientUnits="userSpaceOnUse">
<stop stop-color="#150000"/>
<stop offset="1" stop-color="#7A0500"/>
</linearGradient>
<linearGradient id="paint64_linear_101_115" x1="1.10097e+06" y1="-11289.1" x2="1.10097e+06" y2="26122.4" gradientUnits="userSpaceOnUse">
<stop stop-color="#150000"/>
<stop offset="1" stop-color="#7A0500"/>
</linearGradient>
<linearGradient id="paint65_linear_101_115" x1="8052.41" y1="-70.0733" x2="8052.41" y2="922.841" gradientUnits="userSpaceOnUse">
<stop stop-color="#150000"/>
<stop offset="1" stop-color="#7A0500"/>
</linearGradient>
<linearGradient id="paint66_linear_101_115" x1="83927" y1="-1139.14" x2="83927" y2="3289.67" gradientUnits="userSpaceOnUse">
<stop stop-color="#150000"/>
<stop offset="1" stop-color="#7A0500"/>
</linearGradient>
<linearGradient id="paint67_linear_101_115" x1="1.10099e+06" y1="-11928.2" x2="1.10099e+06" y2="27599" gradientUnits="userSpaceOnUse">
<stop stop-color="#150000"/>
<stop offset="1" stop-color="#7A0500"/>
</linearGradient>
<linearGradient id="paint68_linear_101_115" x1="25462.8" y1="-4877.01" x2="25462.8" y2="10936.3" gradientUnits="userSpaceOnUse">
<stop stop-color="#150000"/>
<stop offset="1" stop-color="#7A0500"/>
</linearGradient>
<linearGradient id="paint69_linear_101_115" x1="1519.29" y1="-159.493" x2="1519.29" y2="387.785" gradientUnits="userSpaceOnUse">
<stop stop-color="#150000"/>
<stop offset="1" stop-color="#7A0500"/>
</linearGradient>
<linearGradient id="paint70_linear_101_115" x1="1.101e+06" y1="-9047.42" x2="1.101e+06" y2="21205.9" gradientUnits="userSpaceOnUse">
<stop stop-color="#150000"/>
<stop offset="1" stop-color="#7A0500"/>
</linearGradient>
<linearGradient id="paint71_linear_101_115" x1="8987.96" y1="-204.19" x2="8987.96" y2="1224.7" gradientUnits="userSpaceOnUse">
<stop stop-color="#150000"/>
<stop offset="1" stop-color="#7A0500"/>
</linearGradient>
<linearGradient id="paint72_linear_101_115" x1="1.10092e+06" y1="-5479.02" x2="1.10092e+06" y2="13268.8" gradientUnits="userSpaceOnUse">
<stop stop-color="#150000"/>
<stop offset="1" stop-color="#7A0500"/>
</linearGradient>
<linearGradient id="paint73_linear_101_115" x1="2284.64" y1="-399.36" x2="2284.64" y2="1691.17" gradientUnits="userSpaceOnUse">
<stop stop-color="#150000"/>
<stop offset="1" stop-color="#7A0500"/>
</linearGradient>
<linearGradient id="paint74_linear_101_115" x1="372937" y1="-9414.75" x2="372937" y2="21856.8" gradientUnits="userSpaceOnUse">
<stop stop-color="#150000"/>
<stop offset="1" stop-color="#7A0500"/>
</linearGradient>
<linearGradient id="paint75_linear_101_115" x1="198.257" y1="79.5595" x2="198.257" y2="626.584" gradientUnits="userSpaceOnUse">
<stop stop-color="#150000"/>
<stop offset="1" stop-color="#7A0500"/>
</linearGradient>
<linearGradient id="paint76_linear_101_115" x1="16857.1" y1="-390.142" x2="16857.1" y2="896.497" gradientUnits="userSpaceOnUse">
<stop stop-color="#150000"/>
<stop offset="1" stop-color="#7A0500"/>
</linearGradient>
<linearGradient id="paint77_linear_101_115" x1="78069.7" y1="-577.347" x2="78069.7" y2="2151.4" gradientUnits="userSpaceOnUse">
<stop stop-color="#150000"/>
<stop offset="1" stop-color="#7A0500"/>
</linearGradient>
<linearGradient id="paint78_linear_101_115" x1="33491.1" y1="-3179.75" x2="33491.1" y2="7870.41" gradientUnits="userSpaceOnUse">
<stop stop-color="#150000"/>
<stop offset="1" stop-color="#7A0500"/>
</linearGradient>
<linearGradient id="paint79_linear_101_115" x1="679.684" y1="75.3384" x2="679.684" y2="622.878" gradientUnits="userSpaceOnUse">
<stop stop-color="#150000"/>
<stop offset="1" stop-color="#7A0500"/>
</linearGradient>
<linearGradient id="paint80_linear_101_115" x1="1414.19" y1="69.1938" x2="1414.19" y2="616.743" gradientUnits="userSpaceOnUse">
<stop stop-color="#150000"/>
<stop offset="1" stop-color="#7A0500"/>
</linearGradient>
<linearGradient id="paint81_linear_101_115" x1="2326.01" y1="-88.5268" x2="2326.01" y2="972.119" gradientUnits="userSpaceOnUse">
<stop stop-color="#150000"/>
<stop offset="1" stop-color="#7A0500"/>
</linearGradient>
<linearGradient id="paint82_linear_101_115" x1="2249.83" y1="-64.5134" x2="2249.83" y2="925.665" gradientUnits="userSpaceOnUse">
<stop stop-color="#150000"/>
<stop offset="1" stop-color="#7A0500"/>
</linearGradient>
<linearGradient id="paint83_linear_101_115" x1="1353.09" y1="41.9671" x2="1317" y2="33.696" gradientUnits="userSpaceOnUse">
<stop stop-color="#8C432B"/>
<stop offset="1" stop-color="#340000"/>
</linearGradient>
<radialGradient id="paint84_radial_101_115" cx="0" cy="0" r="1" gradientUnits="userSpaceOnUse" gradientTransform="translate(1344.69 39.5143) rotate(-37.0324) scale(22.7001 23.3294)">
<stop stop-color="#FEE4D1"/>
<stop offset="1" stop-color="#C6930E"/>
</radialGradient>
<radialGradient id="paint85_radial_101_115" cx="0" cy="0" r="1" gradientUnits="userSpaceOnUse" gradientTransform="translate(1326.18 37.0292) scale(11.6117 12.668)">
<stop stop-color="#C6930E"/>
<stop offset="0.99" stop-color="#704120"/>
</radialGradient>
<radialGradient id="paint86_radial_101_115" cx="0" cy="0" r="1" gradientUnits="userSpaceOnUse" gradientTransform="translate(11063.5 -1251.93) scale(25.8933 55.4986)">
<stop stop-color="#C6930E"/>
<stop offset="0.99" stop-color="#704120"/>
</radialGradient>
<radialGradient id="paint87_radial_101_115" cx="0" cy="0" r="1" gradientUnits="userSpaceOnUse" gradientTransform="translate(20857.8 -448.033) scale(50.9129 28.2489)">
<stop stop-color="#C6930E"/>
<stop offset="0.99" stop-color="#704120"/>
</radialGradient>
<radialGradient id="paint88_radial_101_115" cx="0" cy="0" r="1" gradientUnits="userSpaceOnUse" gradientTransform="translate(15735.7 -1071.65) scale(38.6037 51.0066)">
<stop stop-color="#C6930E"/>
<stop offset="0.99" stop-color="#704120"/>
</radialGradient>
<radialGradient id="paint89_radial_101_115" cx="0" cy="0" r="1" gradientUnits="userSpaceOnUse" gradientTransform="translate(18835.9 -719.873) scale(46.7972 42.1155)">
<stop stop-color="#C6930E"/>
<stop offset="0.99" stop-color="#704120"/>
</radialGradient>
<linearGradient id="paint90_linear_101_115" x1="188391" y1="734961" x2="186844" y2="734609" gradientUnits="userSpaceOnUse">
<stop stop-color="#8C432B"/>
<stop offset="1" stop-color="#340000"/>
</linearGradient>
<radialGradient id="paint91_radial_101_115" cx="0" cy="0" r="1" gradientUnits="userSpaceOnUse" gradientTransform="translate(190307 670036) rotate(60.1363) scale(1006.7 966.283)">
<stop stop-color="#FEE4D1"/>
<stop offset="1" stop-color="#C6930E"/>
</radialGradient>
<radialGradient id="paint92_radial_101_115" cx="0" cy="0" r="1" gradientUnits="userSpaceOnUse" gradientTransform="translate(85209.1 33962.2) scale(538.681 587.678)">
<stop stop-color="#C6930E"/>
<stop offset="0.99" stop-color="#704120"/>
</radialGradient>
<radialGradient id="paint93_radial_101_115" cx="0" cy="0" r="1" gradientUnits="userSpaceOnUse" gradientTransform="translate(21128.7 1278.31) scale(50.6779 26.0464)">
<stop stop-color="#C6930E"/>
<stop offset="0.99" stop-color="#704120"/>
</radialGradient>
<radialGradient id="paint94_radial_101_115" cx="0" cy="0" r="1" gradientUnits="userSpaceOnUse" gradientTransform="translate(10348.3 2231.56) scale(23.8338 55.287)">
<stop stop-color="#C6930E"/>
<stop offset="0.99" stop-color="#704120"/>
</radialGradient>
<radialGradient id="paint95_radial_101_115" cx="0" cy="0" r="1" gradientUnits="userSpaceOnUse" gradientTransform="translate(18405.5 1947.75) scale(45.5971 43.2525)">
<stop stop-color="#C6930E"/>
<stop offset="0.99" stop-color="#704120"/>
</radialGradient>
<radialGradient id="paint96_radial_101_115" cx="0" cy="0" r="1" gradientUnits="userSpaceOnUse" gradientTransform="translate(16002.7 2126.59) scale(39.6465 49.745)">
<stop stop-color="#C6930E"/>
<stop offset="0.99" stop-color="#704120"/>
</radialGradient>
<linearGradient id="paint97_linear_101_115" x1="526352" y1="-201141" x2="524804" y2="-201495" gradientUnits="userSpaceOnUse">
<stop stop-color="#8C432B"/>
<stop offset="1" stop-color="#340000"/>
</linearGradient>
<radialGradient id="paint98_radial_101_115" cx="0" cy="0" r="1" gradientUnits="userSpaceOnUse" gradientTransform="translate(496385 -190779) rotate(-28.9786) scale(963.373 1011.66)">
<stop stop-color="#FEE4D1"/>
<stop offset="1" stop-color="#C6930E"/>
</radialGradient>
<radialGradient id="paint99_radial_101_115" cx="0" cy="0" r="1" gradientUnits="userSpaceOnUse" gradientTransform="translate(26046.8 34980.7) scale(571.924 623.946)">
<stop stop-color="#C6930E"/>
<stop offset="0.99" stop-color="#704120"/>
</radialGradient>
<radialGradient id="paint100_radial_101_115" cx="0" cy="0" r="1" gradientUnits="userSpaceOnUse" gradientTransform="translate(1437.94 2238.3) scale(20.6672 54.5806)">
<stop stop-color="#C6930E"/>
<stop offset="0.99" stop-color="#704120"/>
</radialGradient>
<radialGradient id="paint101_radial_101_115" cx="0" cy="0" r="1" gradientUnits="userSpaceOnUse" gradientTransform="translate(3812.95 1249.85) scale(49.7064 22.3705)">
<stop stop-color="#C6930E"/>
<stop offset="0.99" stop-color="#704120"/>
</radialGradient>
<radialGradient id="paint102_radial_101_115" cx="0" cy="0" r="1" gradientUnits="userSpaceOnUse" gradientTransform="translate(3127.49 1937.57) scale(41.3935 46.5496)">
<stop stop-color="#C6930E"/>
<stop offset="0.99" stop-color="#704120"/>
</radialGradient>
<radialGradient id="paint103_radial_101_115" cx="0" cy="0" r="1" gradientUnits="userSpaceOnUse" gradientTransform="translate(3178.29 2027.88) scale(42.5467 45.0747)">
<stop stop-color="#C6930E"/>
<stop offset="0.99" stop-color="#704120"/>
</radialGradient>
<linearGradient id="paint104_linear_101_115" x1="451992" y1="380480" x2="450447" y2="380127" gradientUnits="userSpaceOnUse">
<stop stop-color="#8C432B"/>
<stop offset="1" stop-color="#340000"/>
</linearGradient>
<radialGradient id="paint105_radial_101_115" cx="0" cy="0" r="1" gradientUnits="userSpaceOnUse" gradientTransform="translate(427648 343088) rotate(24.2854) scale(956.956 1015.93)">
<stop stop-color="#FEE4D1"/>
<stop offset="1" stop-color="#C6930E"/>
</radialGradient>
<radialGradient id="paint106_radial_101_115" cx="0" cy="0" r="1" gradientUnits="userSpaceOnUse" gradientTransform="translate(26537.8 22820.2) scale(593.732 647.738)">
<stop stop-color="#C6930E"/>
<stop offset="0.99" stop-color="#704120"/>
</radialGradient>
<radialGradient id="paint107_radial_101_115" cx="0" cy="0" r="1" gradientUnits="userSpaceOnUse" gradientTransform="translate(2970.54 -1033.64) scale(39.5965 46.5845)">
<stop stop-color="#C6930E"/>
<stop offset="0.99" stop-color="#704120"/>
</radialGradient>
<radialGradient id="paint108_radial_101_115" cx="0" cy="0" r="1" gradientUnits="userSpaceOnUse" gradientTransform="translate(3109.5 -887.069) scale(42.8263 43.1983)">
<stop stop-color="#C6930E"/>
<stop offset="0.99" stop-color="#704120"/>
</radialGradient>
<radialGradient id="paint109_radial_101_115" cx="0" cy="0" r="1" gradientUnits="userSpaceOnUse" gradientTransform="translate(3994.08 -361.408) scale(49.7225 23.2985)">
<stop stop-color="#C6930E"/>
<stop offset="0.99" stop-color="#704120"/>
</radialGradient>
<radialGradient id="paint110_radial_101_115" cx="0" cy="0" r="1" gradientUnits="userSpaceOnUse" gradientTransform="translate(1496.74 -1061.83) scale(21.3559 54.2895)">
<stop stop-color="#C6930E"/>
<stop offset="0.99" stop-color="#704120"/>
</radialGradient>
</defs>
</svg>
