<svg width="30" height="33" viewBox="0 0 30 33" fill="none" xmlns="http://www.w3.org/2000/svg">
<path d="M5.65 1L1 7.2V28.9C1 29.7222 1.32661 30.5107 1.90797 31.092C2.48933 31.6734 3.27783 32 4.1 32H25.8C26.6222 32 27.4107 31.6734 27.992 31.092C28.5734 30.5107 28.9 29.7222 28.9 28.9V7.2L24.25 1H5.65Z" stroke="#FFFEFE" stroke-width="2" stroke-linecap="round" stroke-linejoin="round"/>
<path d="M1 7.20001H28.9" stroke="#FFFEFE" stroke-width="2" stroke-linecap="round" stroke-linejoin="round"/>
<path d="M21.15 13.4C21.15 15.0443 20.4968 16.6213 19.3341 17.7841C18.1713 18.9468 16.5943 19.6 14.95 19.6C13.3057 19.6 11.7287 18.9468 10.5659 17.7841C9.40321 16.6213 8.75 15.0443 8.75 13.4" stroke="#FFFEFE" stroke-width="2" stroke-linecap="round" stroke-linejoin="round"/>
</svg>
